<?xml version="1.0" encoding="utf-8"?>
<!-- Generator: Adobe Illustrator 25.2.1, SVG Export Plug-In . SVG Version: 6.00 Build 0)  -->
<svg version="1.1" id="Layer_1" xmlns="http://www.w3.org/2000/svg" xmlns:xlink="http://www.w3.org/1999/xlink" x="0px" y="0px"
	 viewBox="0 0 389.9 122.5" style="enable-background:new 0 0 389.9 122.5;" xml:space="preserve">
<style type="text/css">
	.st0{fill:#FFFFFF;}
	.st1{fill:#231F20;}
</style>
<g>
	<path class="st0" d="M247.5,78.7c-3.3-9.4-11.1-12.8-20.6-12.8c-5,0-9.7,1.1-13.6,4.4c-3.9,3.2-5.9,7.7-5.9,12.8
		c0,11.9,9.5,14.7,19.2,16.7c3.3,0.7,9.5,1.6,9.5,6.1s-4.8,5.9-8.5,5.9c-5.6,0-9.7-2-11.3-7.7l-11.7,2.7c2.5,10.6,11.7,15,21.9,15
		c5.5,0,11.4-1,15.8-4.4c4.2-3.2,6.7-8.3,6.7-13.6c0-5.4-2.7-9.9-7.1-12.8c-3.8-2.5-9.7-3.6-14.2-4.6c-3.1-0.6-7.8-1.5-7.8-5.5
		c0-4.2,4.1-5.1,7.5-5.1c4.8,0,7.8,1.8,9.3,6.4L247.5,78.7z M171.7,76.7h4.4c4.5,0,7.8,0.6,10.7,4.4c2.6,3.4,3.9,8,3.9,12.3
		c0,4-0.9,8.2-3,11.7c-2.9,4.8-6.3,5.8-11.6,5.8h-4.3V76.7z M159,66.7v54.3h17.9c7.7,0,14.3-1.6,19.7-7.5c4.8-5.5,7-12.5,7-19.8
		c0-7.8-2.5-15.4-8.4-20.9c-5.9-5.6-12.7-6.1-20.5-6.1H159z M132.3,110.3V66.7h-12.7v54.3h34.5v-10.8H132.3z M113.5,66.7h-12.7v54.3
		h12.7V66.7z M94.9,66.7H83.9v32.9c0,2.9,0.2,6.7-1.5,9.1c-1.6,2.1-5.3,2.9-7.8,2.9c-3.1,0-6.5-0.8-8.2-3.6
		c-1.3-2.2-1.2-5.9-1.2-8.4V66.7H51.4v32.9c0,6.7,0.2,12.9,5.6,17.6c4.4,3.8,10.9,4.7,16.6,4.7c5.9,0,12.4-1.3,16.7-5.7
		c4.5-4.4,4.4-10.6,4.4-16.6V66.7z M14.9,97.9h9.3c2.1,0,4.6,0,6.4,1c1.8,1,3.1,3.2,3.1,5.2c0,2.2-1,4.4-2.9,5.6
		c-2,1.3-4.9,1.2-7.2,1.2h-8.8V97.9z M14.9,76.4h7.7c2.1,0,5.5-0.2,7.3,0.8c1.7,1,2.7,2.9,2.7,4.9c0,1.8-0.8,3.8-2.3,4.9
		c-1.9,1.4-4.5,1.3-6.7,1.3h-8.6V76.4z M2.2,66.7v54.3h24.3c4.7,0,10,0,13.9-2.9c3.8-2.8,6.7-7,6.7-11.7c0-7-4.6-12.2-11.3-13.5
		v-0.2c5.7-1.4,9.8-5.5,9.8-11.7c0-5.1-2.3-9.1-6.7-11.9c-3.7-2.4-8.2-2.4-12.4-2.4H2.2z"/>
	<path class="st1" d="M388,1.4h-9.8v31.9H378L359.8,1.4h-13.7v54.3h9.8V19.2h0.3l20.8,36.5H388V1.4z M318.8,11c4,0,6.3,1.7,7.8,5.3
		c1.6,3.6,2,8.3,2,12.3c0,3.6-0.4,8.1-1.7,11.4c-1.4,4-3.8,6.2-8.2,6.2c-8.9,0-10-10.9-10-17.7c0-3.4,0.5-8.1,1.7-11.3
		C312.1,13.2,314.5,11,318.8,11 M318.8,56.5c7.4,0,13.8-3,18-9.2c3.5-5.1,5.1-12.7,5.1-18.8c0-6.6-2-14.3-5.9-19.6
		C331.7,3,326,0.6,318.8,0.6c-16.1,0-23.3,13.5-23.3,27.9c0,6.8,1.7,13.9,5.7,19.5C305.5,54,311.4,56.5,318.8,56.5 M295.2,1.4h-40.1
		v10.8h13.8v43.6h12.7V12.2h13.6V1.4z M252.3,11.9V1.4h-38.8v54.3h38.8V45.2h-26.1v-12h20.6V22.9h-20.6v-11H252.3z M209,21.6
		c-1.4-13.1-8.4-21-22-21c-16.3,0-24.4,12.9-24.4,28c0,14.8,7.8,28,24,28c12.5,0,21.1-7.4,22.4-19.8l-12.4-0.8
		c-0.7,5.2-3.5,10.2-9.4,10.2c-9.6,0-10.5-9.6-10.5-17c0-6.6,0.9-18.3,9.8-18.3c7,0,9,5.6,9.1,11.6L209,21.6z M158.4,1.4h-9.8v31.9
		h-0.2L130.2,1.4h-13.7v54.3h9.8V19.2h0.3l20.8,36.5h10.9V1.4z M110,1.4H97.4v54.3H110V1.4z M60.7,11.1h6.7c2.4,0,6-0.3,8.2,1
		c1.8,1.1,3.1,3.4,3.1,5.5c0,2.4-1.1,4.9-3.2,6.2c-2.3,1.3-5.1,1.1-7.8,1.1h-7V11.1z M60.7,34.3H70l8.3,21.5h14.1l-10.1-24
		c5.9-2.1,9.4-7.8,9.4-14c0-5.3-2.5-10.6-6.9-13.5c-4.2-2.7-9.1-2.8-13.9-2.8H48v54.3h12.7V34.3z M14.6,25.7V11.3h7c2.4,0,5,0,7,1.5
		c1.7,1.3,2.6,3.6,2.6,5.7c0,1.7-0.6,3.5-1.7,4.8c-2.2,2.4-4.8,2.4-7.8,2.4H14.6z M14.6,35.6h8.2c5.8,0,10.8,0.1,15.4-3.8
		c4-3.4,5.9-8.6,5.9-13.8c0-5.6-2.5-10.3-7-13.5c-4.5-3.1-9.3-3.1-14.7-3.1H1.9v54.3h12.7V35.6z"/>
</g>
</svg>
